Coordinates
version=1
nRows=11
nColumns=63
inDegrees=yes

Units are S.I. units (second, meters, Newtons, ...)
If the header above contains a line with 'inDegrees', this indicates whether rotational values are in degrees (yes) or radians (no).

endheader
time	pelvis_tilt	pelvis_list	pelvis_rotation	pelvis_tx	pelvis_ty	pelvis_tz	hip_flexion_r	hip_adduction_r	hip_rotation_r	knee_angle_r	knee_angle_r_beta	ankle_angle_r	subtalar_angle_r	mtp_angle_r	hip_flexion_l	hip_adduction_l	hip_rotation_l	knee_angle_l	knee_angle_l_beta	ankle_angle_l	subtalar_angle_l	mtp_angle_l	L5_S1_Flex_Ext	L5_S1_Lat_Bending	L5_S1_axial_rotation	L4_L5_Flex_Ext	L4_L5_Lat_Bending	L4_L5_axial_rotation	L3_L4_Flex_Ext	L3_L4_Lat_Bending	L3_L4_axial_rotation	L2_L3_Flex_Ext	L2_L3_Lat_Bending	L2_L3_axial_rotation	L1_L2_Flex_Ext	L1_L2_Lat_Bending	L1_L2_axial_rotation	L1_T12_Flex_Ext	L1_T12_Lat_Bending	L1_T12_axial_rotation	Abs_r3	Abs_r2	Abs_r1	Abs_t1	Abs_t2	neck_flexion	neck_bending	neck_rotation	arm_flex_r	arm_add_r	arm_rot_r	elbow_flex_r	pro_sup_r	wrist_flex_r	wrist_dev_r	arm_flex_l	arm_add_l	arm_rot_l	elbow_flex_l	pro_sup_l	wrist_flex_l	wrist_dev_l
0.000000	10.841139	-5.047346	104.100519	0.296311	1.099550	0.331961	-3.092456	7.052403	-17.530441	5.275532	0.092075	32.570726	10.953115	0.000000	0.854209	-4.831202	10.009923	10.122011	0.176662	34.385469	2.164025	0.000000	-0.077902	0.658825	-1.983850	-0.144672	0.876237	-2.107840	-0.127985	1.601866	-2.107840	-0.089034	1.601866	-1.735868	-0.072340	1.343475	-1.611878	-0.044513	1.020520	-1.487887	-0.556445	7.452757	-11.033577	0.000000	0.000000	20.468901	-1.773097	-0.741504	9.918089	-10.171714	159.393709	2.309563	10.732733	-4.132296	-4.168385	7.637746	-8.854788	129.346724	12.562332	19.469490	-12.854985	-11.637750
0.017544	10.823874	-5.050842	103.407815	0.297668	1.100088	0.330493	-3.179160	6.955330	-17.638463	5.659930	0.098784	32.630815	12.375979	0.000000	0.562924	-4.806089	9.584160	10.218818	0.178352	33.868247	1.210552	0.000000	-0.070394	0.658714	-1.903344	-0.130729	0.876089	-2.022303	-0.115651	1.601597	-2.022303	-0.080454	1.601597	-1.665426	-0.065368	1.343249	-1.546467	-0.040223	1.020348	-1.427508	-0.502819	7.451502	-10.585826	0.000000	0.000000	20.279942	-1.654087	-0.136205	10.397033	-10.517133	154.357083	4.006789	10.141635	-4.067965	-3.978834	7.800961	-7.905431	140.434306	10.176205	9.689747	-12.182264	-13.689091
0.035088	10.789417	-5.064153	102.824994	0.298841	1.100514	0.329250	-3.250754	6.865209	-17.573578	5.947318	0.103800	32.641481	13.318028	0.000000	0.310601	-4.759721	9.303258	10.259525	0.179062	33.408414	0.312233	0.000000	-0.063526	0.655648	-1.841160	-0.117974	0.872012	-1.956233	-0.104367	1.594143	-1.956233	-0.072604	1.594143	-1.611015	-0.058990	1.336998	-1.495943	-0.036299	1.015599	-1.380870	-0.453761	7.416825	-10.239982	0.000000	0.000000	20.122094	-1.536078	0.382389	10.839189	-10.755690	150.553248	5.408569	9.767157	-4.065092	-3.829262	7.856583	-7.230601	148.177318	8.412035	2.772826	-11.573281	-15.132612
0.052632	10.739664	-5.086186	102.343509	0.299844	1.100839	0.328213	-3.308553	6.781324	-17.357333	6.147400	0.107292	32.608316	13.829765	0.000000	0.094929	-4.694408	9.152766	10.251295	0.178919	33.002763	-0.531291	0.000000	-0.057253	0.649954	-1.795307	-0.106325	0.864439	-1.907514	-0.094062	1.580298	-1.907514	-0.065435	1.580298	-1.570894	-0.053165	1.325386	-1.458687	-0.032715	1.006778	-1.346480	-0.408955	7.352408	-9.984959	0.000000	0.000000	19.993689	-1.420106	0.819097	11.244887	-10.897079	147.874370	6.536800	9.591192	-4.114755	-3.715775	7.816653	-6.805788	152.880816	7.218593	-1.528716	-11.027907	-16.020560
0.070175	10.676515	-5.115848	101.954810	0.300686	1.101071	0.327364	-3.353876	6.702962	-17.011274	6.269882	0.109430	32.536913	13.961690	0.000000	-0.086402	-4.612463	9.118233	10.201292	0.178046	32.648085	-1.320380	0.000000	-0.051532	0.641955	-1.763790	-0.095700	0.853801	-1.874027	-0.084662	1.560851	-1.874027	-0.058896	1.560851	-1.543317	-0.047852	1.309076	-1.433080	-0.029445	0.994389	-1.322843	-0.368086	7.261929	-9.809674	0.000000	0.000000	19.893063	-1.307206	1.178741	11.614455	-10.950996	146.212610	7.413382	9.595630	-4.208029	-3.634481	7.693217	-6.606480	154.849852	6.544652	-3.462325	-10.546013	-16.405185
0.087719	10.601865	-5.152049	101.650350	0.301380	1.101221	0.326682	-3.388037	6.629404	-16.556947	6.324467	0.110383	32.432865	13.764306	0.000000	-0.235702	-4.516196	9.185207	10.116678	0.176569	32.341173	-2.055391	0.000000	-0.046317	0.631979	-1.744618	-0.086015	0.840532	-1.853656	-0.076094	1.536593	-1.853656	-0.052936	1.536593	-1.526540	-0.043010	1.288731	-1.417502	-0.026466	0.978935	-1.308463	-0.330838	7.149069	-9.703039	0.000000	0.000000	19.818552	-1.198412	1.466141	11.948221	-10.927137	145.460134	8.060215	9.762364	-4.335991	-3.581484	7.498317	-6.608165	154.389479	6.338981	-3.275442	-10.127468	-16.338735
0.105263	10.517614	-5.193696	101.421579	0.301937	1.101299	0.326149	-3.412353	6.559937	-16.015899	6.320860	0.110320	32.301766	13.288113	0.000000	-0.355281	-4.407920	9.339240	10.004618	0.174614	32.078818	-2.736686	0.000000	-0.041565	0.620349	-1.735795	-0.077190	0.825064	-1.844282	-0.068287	1.508316	-1.844282	-0.047505	1.508316	-1.518821	-0.038597	1.265015	-1.410333	-0.023750	0.960920	-1.301846	-0.296894	7.017509	-9.653971	0.000000	0.000000	19.768489	-1.094758	1.686120	12.246516	-10.835196	145.509105	8.499198	10.073286	-4.489717	-3.552891	7.243998	-6.786332	151.804751	6.550353	-1.215514	-9.772143	-15.873460
0.122807	10.425658	-5.239698	101.259950	0.302368	1.101315	0.325746	-3.428142	6.493844	-15.409678	6.268767	0.109411	32.149207	12.583614	0.000000	-0.447450	-4.289946	9.565878	9.872275	0.172304	31.857812	-3.364622	0.000000	-0.037231	0.607391	-1.735330	-0.069142	0.807830	-1.843788	-0.061167	1.476810	-1.843788	-0.042551	1.476810	-1.518414	-0.034573	1.238592	-1.409956	-0.021274	0.940849	-1.301498	-0.265938	6.870928	-9.651385	0.000000	0.000000	19.741209	-0.997280	1.843497	12.509669	-10.684869	146.251686	8.752229	10.510287	-4.660284	-3.544808	6.942302	-7.116468	147.400722	7.127538	2.470017	-9.479906	-15.061608
0.140351	10.327895	-5.288962	101.156913	0.302685	1.101279	0.325452	-3.436718	6.430410	-14.759828	6.177890	0.107825	31.980782	11.701309	0.000000	-0.514519	-4.164586	9.850672	9.726813	0.169765	31.674948	-3.939560	0.000000	-0.033271	0.593431	-1.741229	-0.061788	0.789263	-1.850056	-0.054662	1.442867	-1.850056	-0.038026	1.442867	-1.523576	-0.030896	1.210124	-1.414749	-0.019011	0.919224	-1.305922	-0.237655	6.713006	-9.684195	0.000000	0.000000	19.735048	-0.907012	1.943093	12.738007	-10.485851	147.580042	8.841208	11.055259	-4.838767	-3.553342	6.605274	-7.574063	141.482446	8.019307	7.533707	-9.250630	-13.955429
0.157895	10.226223	-5.340397	101.103920	0.302900	1.101200	0.325249	-3.439399	6.368919	-14.087898	6.057936	0.105731	31.802083	10.691701	0.000000	-0.558798	-4.034152	10.179170	9.575396	0.167122	31.527017	-4.461858	0.000000	-0.029642	0.578793	-1.751500	-0.055047	0.769795	-1.860969	-0.048698	1.407278	-1.860969	-0.033877	1.407278	-1.532562	-0.027525	1.180275	-1.423094	-0.016937	0.896551	-1.313625	-0.211727	6.547425	-9.741317	0.000000	0.000000	19.748340	-0.824989	1.989731	12.931861	-10.247838	149.386335	8.788034	11.690095	-5.016244	-3.574598	6.244958	-8.134604	134.354974	9.174433	13.728112	-9.084183	-12.607170
0.175439	10.122540	-5.392911	101.092422	0.303025	1.101089	0.325117	-3.437501	6.308656	-13.415434	5.918609	0.103299	31.618705	9.605290	0.000000	-0.582598	-3.900955	10.536922	9.425186	0.164501	31.410812	-4.931876	0.000000	-0.026297	0.563804	-1.764148	-0.048837	0.749859	-1.874408	-0.043204	1.370833	-1.874408	-0.030055	1.370833	-1.543630	-0.024420	1.149709	-1.433371	-0.015026	0.873332	-1.323111	-0.187840	6.377863	-9.811664	0.000000	0.000000	19.779420	-0.752246	1.988229	13.091558	-9.980525	151.562731	8.614606	12.396686	-5.183790	-3.604683	5.873396	-8.773581	126.323362	10.541685	20.805787	-8.980435	-11.069081
